<svg width="106" height="104" viewBox="0 0 106 104" fill="none" xmlns="http://www.w3.org/2000/svg">
<g clip-path="url(#clip0)">
<path d="M52.5522 103C81.0121 103 104.083 80.1665 104.083 52C104.083 23.8335 81.0121 1 52.5522 1C24.0922 1 1.0209 23.8335 1.0209 52C1.0209 80.1665 24.0922 103 52.5522 103Z" stroke="black" stroke-width="2"/>
<path d="M14.1563 46.0043C17.3216 46.0477 18.9059 48.3067 20.7334 50.9212C22.7243 53.7698 24.9791 57 29.4403 57C33.9015 57 36.1563 53.7698 38.1507 50.9212C39.9956 48.2806 41.5904 46 44.8146 46C48.0424 46 49.6371 48.2806 51.482 50.9212C53.4729 53.7698 55.7312 57 60.1924 57C64.6536 57 66.9085 53.7698 68.9028 50.9212C70.7478 48.2806 72.3425 46 75.5702 46C78.7979 46 80.3927 48.2806 82.2376 50.9212C84.2284 53.7698 86.4868 57 90.948 57" stroke="black" stroke-width="2" stroke-miterlimit="10"/>
</g>
<defs>
<clipPath id="clip0">
<rect width="105.083" height="104" fill="white" transform="translate(0.010498)"/>
</clipPath>
</defs>
</svg>
