<svg width="107" height="104" viewBox="0 0 107 104" fill="none" xmlns="http://www.w3.org/2000/svg">
<g clip-path="url(#clip0)">
<path d="M53.5314 103C81.9913 103 105.063 80.1665 105.063 52C105.063 23.8335 81.9913 1 53.5314 1C25.0714 1 2.00009 23.8335 2.00009 52C2.00009 80.1665 25.0714 103 53.5314 103Z" stroke="black" stroke-width="2"/>
<path d="M27.2605 74V52.5088C27.2605 36.7638 38.7961 24 53.0261 24C67.2561 24 78.7918 36.7638 78.7918 52.5088V74" stroke="black" stroke-width="2"/>
<path d="M35.3438 74V51.386C35.3438 40.6794 43.2605 32 53.0261 32C62.7918 32 70.7084 40.6794 70.7084 51.386V74" stroke="black" stroke-width="2"/>
<path d="M43.4272 73.5V51.0777C43.4272 44.9597 47.951 40 53.5313 40C59.1117 40 63.6355 44.9597 63.6355 51.0777V73.5" stroke="black" stroke-width="2"/>
</g>
<defs>
<clipPath id="clip0">
<rect width="105.083" height="104" fill="white" transform="translate(0.98967)"/>
</clipPath>
</defs>
</svg>
