<svg width="106" height="104" viewBox="0 0 106 104" fill="none" xmlns="http://www.w3.org/2000/svg">
<g clip-path="url(#clip0)">
<path d="M52.573 103C81.0329 103 104.104 80.1665 104.104 52C104.104 23.8335 81.0329 1 52.573 1C24.1131 1 1.04175 23.8335 1.04175 52C1.04175 80.1665 24.1131 103 52.573 103Z" stroke="black" stroke-width="2"/>
<path d="M40.448 67C52.1668 67 61.6668 57.598 61.6668 46C61.6668 34.402 52.1668 25 40.448 25C28.7292 25 19.2292 34.402 19.2292 46C19.2292 57.598 28.7292 67 40.448 67Z" stroke="black" stroke-width="2"/>
<path d="M62.6771 81C74.3959 81 83.8959 71.598 83.8959 60C83.8959 48.402 74.3959 39 62.6771 39C50.9583 39 41.4584 48.402 41.4584 60C41.4584 71.598 50.9583 81 62.6771 81Z" stroke="black" stroke-width="2"/>
</g>
<defs>
<clipPath id="clip0">
<rect width="105.083" height="104" fill="white" transform="translate(0.031311)"/>
</clipPath>
</defs>
</svg>
